<svg xmlns="http://www.w3.org/2000/svg" viewBox="0 0 512 512" width="100%" height="100%">
<path fill="#4b4f29" d="M256 0C167.634 0 96 71.634 96 160c0 160 160 352 160 352s160-192 160-352C416 71.634 344.365 0 256 0zm0 258c-57.897 0-105-47.103-105-105s47.103-105 105-105 105 47.103 105 105-47.103 105-105 105z"/>
<path fill="#4b4f29" d="M256 78c-41.355 0-75 33.645-75 75s33.645 75 75 75 75-33.645 75-75-33.645-75-75-75zm37.5 75c0 20.678-16.822 37.5-37.5 37.5s-37.5-16.822-37.5-37.5 16.822-37.5 37.5-37.5 37.5 16.822 37.5 37.5z"/>
<path fill="#4b4f29" d="M256 93c-33.084 0-60 26.916-60 60s26.916 60 60 60 60-26.916 60-60-26.916-60-60-60zm0 105c-24.813 0-45-20.187-45-45s20.187-45 45-45 45 20.187 45 45-20.187 45-45 45z"/>
<g transform="translate(196, 123) scale(0.12, 0.12)">
  <path fill="#4b4f29" d="M505.664 243.739l-54.783-38.622c-9.926-6.997-23.645-6.258-32.775 1.873-9.13 8.131-10.997 21.399-4.6 31.776l6.389 10.344c-26.367-6.51-50.816-6.51-69.872-4.636-10.344 1.024-19.473 2.599-27.391 4.636l6.389-10.344c6.397-10.377 4.53-23.645-4.6-31.776-9.13-8.131-22.849-8.87-32.775-1.873l-54.783 38.622c-7.547 5.324-11.996 13.966-11.996 23.111 0 9.146 4.449 17.787 11.996 23.111l54.783 38.622c4.174 2.942 8.998 4.399 13.807 4.399 6.922 0 13.807-2.673 19.016-7.945 9.13-8.131 10.997-21.399 4.6-31.776l-6.389-10.344c7.918 2.037 17.047 3.612 27.391 4.636 19.056 1.873 43.505 1.873 69.872-4.636l-6.389 10.344c-6.397 10.377-4.53 23.645 4.6 31.776 5.157 4.599 11.52 6.921 17.883 6.921 5.12 0 10.24-1.535 14.635-4.599l54.783-38.622c7.547-5.324 11.996-13.966 11.996-23.111 0-9.146-4.449-17.787-11.996-23.111z"/>
  <path fill="#4b4f29" d="M256 153.6c-5.12 0-10.24 1.535-14.635 4.599-4.395 3.063-7.834 7.253-9.813 12.288-1.979 5.035-2.5 10.445-1.493 15.795 1.007 5.35 3.55 10.155 7.322 13.926 3.771 3.772 8.576 6.315 13.926 7.322 5.35 1.007 10.76.486 15.795-1.493 5.035-1.979 9.225-5.418 12.288-9.813 3.063-4.395 4.599-9.515 4.599-14.635 0-6.922-2.75-13.56-7.637-18.448-4.888-4.887-11.526-7.637-18.448-7.637z"/>
</g>
</svg>

